<svg xmlns="http://www.w3.org/2000/svg">
    <symbol id="add" viewBox="0 0 43 43" preserveAspectRatio="xMidYMid" >
        <path d="M39.000,43.000 L4.000,43.000 C1.791,43.000 -0.000,41.209 -0.000,39.000 L-0.000,4.000 C-0.000,1.791 1.791,-0.000 4.000,-0.000 L39.000,-0.000 C41.209,-0.000 43.000,1.791 43.000,4.000 L43.000,39.000 C43.000,41.209 41.209,43.000 39.000,43.000 ZM31.768,19.857 L23.000,19.857 L23.000,19.000 L22.992,19.000 L22.992,11.251 C22.992,10.560 22.432,10.000 21.741,10.000 C21.050,10.000 20.490,10.560 20.490,11.251 L20.490,19.857 L10.880,19.857 C10.199,19.857 9.648,20.409 9.648,21.089 C9.648,21.770 10.199,22.321 10.880,22.321 L20.490,22.321 L20.490,31.749 C20.490,32.440 21.050,33.000 21.741,33.000 C22.432,33.000 22.992,32.440 22.992,31.749 L22.992,23.000 L23.000,23.000 L23.000,22.321 L31.768,22.321 C32.448,22.321 33.000,21.770 33.000,21.089 C33.000,20.409 32.448,19.857 31.768,19.857 ZM21.000,20.000 L20.490,20.000 L20.490,19.857 L21.000,19.857 L21.000,20.000 ZM21.000,22.000 L21.000,22.321 L20.490,22.321 L20.490,22.000 L21.000,22.000 Z" class="cls-1"/> 
    </symbol>
    <symbol id="car" viewBox="0 0 36 36" preserveAspectRatio="xMidYMid" >
        <path d="M35.726,7.187 C35.477,6.858 35.091,6.665 34.683,6.665 L7.146,6.665 L5.990,1.058 C5.863,0.440 5.327,-0.003 4.705,-0.003 L1.312,-0.003 C0.586,-0.003 -0.001,0.594 -0.001,1.331 C-0.001,2.068 0.586,2.665 1.312,2.665 L3.638,2.665 L8.644,26.941 C8.771,27.559 9.307,28.001 9.929,28.001 L29.706,28.001 C30.432,28.001 31.019,27.405 31.019,26.668 C31.019,25.931 30.432,25.335 29.706,25.335 L10.996,25.335 L10.171,21.334 L31.511,21.334 C32.105,21.334 32.626,20.929 32.780,20.345 L35.952,8.344 C36.058,7.944 35.974,7.515 35.726,7.187 L35.726,7.187 ZM30.505,18.667 L9.621,18.667 L7.697,9.332 L32.972,9.332 L30.505,18.667 L30.505,18.667 ZM12.473,29.335 C10.662,29.335 9.190,30.830 9.190,32.669 C9.190,34.508 10.662,36.003 12.473,36.003 C14.283,36.003 15.755,34.508 15.755,32.669 C15.755,30.830 14.283,29.335 12.473,29.335 L12.473,29.335 ZM12.473,34.002 C11.748,34.002 11.160,33.405 11.160,32.669 C11.160,31.933 11.748,31.336 12.473,31.336 C13.197,31.336 13.786,31.933 13.786,32.669 C13.786,33.405 13.197,34.002 12.473,34.002 L12.473,34.002 ZM26.916,29.335 C25.105,29.335 23.633,30.830 23.633,32.669 C23.633,34.508 25.105,36.003 26.916,36.003 C28.726,36.003 30.198,34.508 30.198,32.669 C30.198,30.830 28.726,29.335 26.916,29.335 L26.916,29.335 ZM26.916,34.002 C26.191,34.002 25.603,33.405 25.603,32.669 C25.603,31.933 26.191,31.336 26.916,31.336 C27.640,31.336 28.229,31.933 28.229,32.669 C28.229,33.405 27.640,34.002 26.916,34.002 L26.916,34.002 Z" class="cls-1"/> 
    </symbol>
    <symbol id="guige" viewBox="0 0 24 24" preserveAspectRatio="xMidYMid" >
        <path d="M22.498,4.499 L16.832,4.499 C17.090,4.056 17.248,3.547 17.248,2.998 C17.248,1.341 15.905,-0.002 14.249,-0.002 C13.347,-0.002 12.548,0.403 11.999,1.033 C11.449,0.403 10.650,-0.002 9.749,-0.002 C8.092,-0.002 6.749,1.341 6.749,2.998 C6.749,3.547 6.907,4.056 7.165,4.499 L1.499,4.499 C0.671,4.499 -0.001,5.171 -0.001,5.999 L-0.001,7.499 C-0.001,8.327 0.671,8.999 1.499,8.999 L1.499,21.002 C1.499,22.659 2.842,24.002 4.499,24.002 L19.498,24.002 C21.155,24.002 22.498,22.659 22.498,21.002 L22.498,8.999 C23.326,8.999 23.998,8.327 23.998,7.499 L23.998,5.999 C23.998,5.171 23.326,4.499 22.498,4.499 ZM14.249,1.498 C15.077,1.498 15.748,2.170 15.748,2.998 C15.748,3.827 15.077,4.499 14.249,4.499 C13.420,4.499 12.749,3.827 12.749,2.998 C12.749,2.170 13.420,1.498 14.249,1.498 ZM9.749,1.498 C10.577,1.498 11.249,2.170 11.249,2.998 C11.249,3.827 10.577,4.499 9.749,4.499 C8.921,4.499 8.249,3.827 8.249,2.998 C8.249,2.170 8.921,1.498 9.749,1.498 ZM11.249,22.502 L4.499,22.502 C3.671,22.502 2.999,21.830 2.999,21.002 L2.999,16.501 L11.249,16.501 L11.249,22.502 L11.249,22.502 ZM11.249,15.000 L2.999,15.000 L2.999,8.999 L11.249,8.999 L11.249,15.000 ZM20.998,21.002 C20.998,21.830 20.326,22.502 19.498,22.502 L12.749,22.502 L12.749,16.501 L20.998,16.501 L20.998,21.002 ZM20.998,15.000 L12.749,15.000 L12.749,8.999 L20.998,8.999 L20.998,15.000 ZM21.748,7.499 L2.249,7.499 C1.835,7.499 1.499,7.164 1.499,6.749 C1.499,6.335 1.835,5.999 2.249,5.999 L21.748,5.999 C22.162,5.999 22.498,6.335 22.498,6.749 C22.498,7.164 22.162,7.499 21.748,7.499 Z" class="cls-1"/> 
    </symbol>
    <symbol id="money" viewBox="0 0 23 22" preserveAspectRatio="xMidYMid" >
        <path d="M23.000,0.952 C22.232,0.952 21.656,0.996 21.273,1.083 C20.888,1.171 20.598,1.302 20.400,1.477 C20.203,1.652 19.951,1.969 19.644,2.429 L12.964,12.312 L12.964,14.578 L17.604,14.578 L17.604,15.563 L12.964,15.563 L12.964,19.306 C12.964,19.766 13.041,20.094 13.195,20.291 C13.348,20.488 13.688,20.642 14.215,20.751 C14.741,20.861 15.651,20.970 16.946,21.079 L16.946,21.999 L6.646,21.999 L6.646,21.079 C7.875,20.992 8.769,20.894 9.328,20.784 C9.887,20.675 10.260,20.516 10.447,20.308 C10.633,20.100 10.726,19.766 10.726,19.306 L10.726,15.563 L5.462,15.563 L5.462,14.578 L10.727,14.578 C10.727,13.133 10.507,12.105 10.069,11.492 L3.981,3.020 C3.367,2.166 2.769,1.603 2.188,1.329 C1.606,1.056 0.877,0.919 -0.000,0.919 L-0.000,-0.001 L8.621,-0.001 L8.621,0.919 C7.523,0.919 6.745,0.968 6.284,1.066 C5.824,1.165 5.593,1.329 5.593,1.559 C5.593,1.789 5.736,2.101 6.021,2.495 L12.372,11.328 L18.690,1.969 C18.843,1.751 18.920,1.559 18.920,1.395 C18.920,1.231 18.701,1.116 18.262,1.050 C17.823,0.984 17.132,0.952 16.189,0.952 L16.189,-0.001 L23.000,-0.001 L23.000,0.952 L23.000,0.952 Z" class="cls-1"/> 
    </symbol>
    <symbol id="shuliang" viewBox="0 0 26 29" preserveAspectRatio="xMidYMid" >
        <path d="M22.533,1.080 L20.799,1.080 C20.279,1.080 19.759,1.441 19.759,1.801 C19.759,2.341 20.279,2.882 20.799,2.882 L22.533,2.882 C23.573,2.882 24.266,3.602 24.266,4.683 L24.266,25.397 C24.266,26.478 23.573,27.198 22.533,27.198 L3.986,27.198 C2.946,27.198 1.732,26.478 1.732,25.397 L1.732,4.683 C1.732,3.602 2.426,2.882 3.466,2.882 L5.719,2.882 C6.239,2.882 6.413,2.341 6.413,1.801 C6.413,1.260 6.066,1.080 5.719,1.080 L3.466,1.080 C1.039,1.080 -0.001,2.701 -0.001,4.683 L-0.001,25.217 C-0.001,27.379 1.212,29.000 3.639,29.000 L22.360,29.000 C24.786,29.000 25.999,27.739 25.999,25.217 L25.999,4.683 C25.999,2.701 24.786,1.080 22.533,1.080 L22.533,1.080 L22.533,1.080 ZM5.719,9.186 C5.719,9.726 6.066,10.086 6.586,10.086 L19.586,10.086 C20.106,10.086 20.453,9.726 20.453,9.186 C20.453,8.646 20.106,8.285 19.586,8.285 L6.586,8.285 C6.066,8.285 5.719,8.646 5.719,9.186 L5.719,9.186 L5.719,9.186 ZM19.586,13.329 L6.586,13.329 C6.066,13.329 5.719,13.689 5.719,14.229 C5.719,14.590 6.066,15.130 6.586,15.130 L19.586,15.130 C20.106,15.130 20.453,14.770 20.453,14.229 C20.453,13.689 19.933,13.329 19.586,13.329 L19.586,13.329 L19.586,13.329 ZM19.586,18.733 L6.586,18.733 C6.066,18.733 5.719,19.093 5.719,19.633 C5.719,20.173 6.066,20.534 6.586,20.534 L19.586,20.534 C20.106,20.534 20.453,20.173 20.453,19.633 C20.453,19.093 19.933,18.733 19.586,18.733 L19.586,18.733 L19.586,18.733 ZM10.053,3.242 L16.119,3.242 C16.813,3.242 17.333,2.521 17.333,1.621 C17.333,0.720 16.813,-0.001 15.946,-0.001 L10.053,-0.001 C9.359,0.180 8.666,0.900 8.666,1.801 C8.666,2.521 9.359,3.242 10.053,3.242 L10.053,3.242 L10.053,3.242 Z" class="cls-1"/> 
    </symbol>
    <symbol id="xqleft" viewBox="0 0 42 7" preserveAspectRatio="xMidYMid" >
        <path d="M-0.000,3.341 C0.004,3.371 0.008,3.400 0.012,3.429 C0.036,3.463 0.026,3.454 0.073,3.467 C0.086,3.450 0.098,3.434 0.110,3.417 C0.106,3.392 0.102,3.366 0.098,3.341 C0.090,3.337 0.082,3.333 0.073,3.329 C0.049,3.333 0.024,3.337 -0.000,3.341 ZM0.955,3.543 C0.952,3.660 0.974,3.695 1.016,3.757 C1.198,3.819 1.430,3.766 1.641,3.782 C2.498,3.786 3.355,3.790 4.212,3.795 C4.887,3.934 4.921,4.932 5.620,5.030 C5.788,5.021 5.955,5.013 6.122,5.004 C6.649,5.004 7.175,5.004 7.702,5.004 C7.984,5.004 8.340,5.068 8.522,4.941 C8.984,4.622 9.060,3.900 9.771,3.782 C15.240,3.790 20.710,3.799 26.179,3.807 C28.489,3.803 30.800,3.799 33.110,3.795 C33.730,3.799 34.351,3.803 34.971,3.807 C35.188,3.807 35.531,3.693 35.706,3.807 C36.016,4.010 35.618,4.404 35.485,4.500 C35.322,4.619 35.253,4.765 35.008,4.815 C34.392,4.815 33.775,4.815 33.159,4.815 C33.007,4.814 32.855,4.760 32.718,4.815 C32.552,4.882 32.453,5.057 32.351,5.193 C32.181,5.421 31.534,6.248 31.310,6.340 C31.157,6.402 30.880,6.363 30.685,6.365 C30.464,6.367 30.257,6.392 30.110,6.302 C29.932,5.689 30.935,5.333 31.004,4.866 C30.991,4.849 30.979,4.832 30.967,4.815 C30.799,4.765 30.656,4.815 30.453,4.815 C29.955,4.815 29.457,4.815 28.959,4.815 C28.730,4.815 28.400,4.752 28.236,4.853 C27.836,5.328 27.436,5.802 27.036,6.277 C26.873,6.394 25.791,6.457 25.689,6.252 C25.472,5.823 26.675,5.162 26.583,4.853 C26.566,4.829 26.582,4.845 26.559,4.828 C26.439,4.746 25.764,4.815 25.530,4.815 C25.205,4.815 23.983,4.755 23.853,4.840 C23.551,5.189 23.249,5.538 22.947,5.886 C22.834,6.033 22.747,6.214 22.579,6.302 C22.377,6.408 21.324,6.449 21.269,6.227 C21.189,5.903 22.016,5.150 22.187,4.954 C22.188,4.874 22.177,4.858 22.151,4.815 C21.972,4.771 21.795,4.831 21.612,4.828 C21.130,4.824 20.649,4.820 20.167,4.815 C19.883,4.815 19.588,4.743 19.408,4.878 C19.302,5.008 19.196,5.139 19.090,5.269 C18.939,5.437 18.788,5.605 18.636,5.773 C18.496,5.959 18.339,6.255 18.110,6.340 C17.865,6.430 17.061,6.392 16.910,6.290 C16.728,5.658 17.729,5.361 17.804,4.866 C17.792,4.849 17.779,4.832 17.767,4.815 C17.601,4.768 17.451,4.815 17.241,4.815 C16.739,4.815 16.236,4.815 15.735,4.815 C15.502,4.815 15.165,4.751 15.012,4.866 C14.690,5.244 14.367,5.622 14.045,6.000 C13.952,6.122 13.889,6.265 13.739,6.327 C13.581,6.392 13.324,6.363 13.114,6.365 C12.859,6.368 12.648,6.388 12.490,6.277 C12.346,5.668 13.319,5.359 13.396,4.866 C13.392,4.857 13.388,4.849 13.384,4.840 C13.185,4.746 12.888,4.815 12.624,4.815 C12.159,4.815 11.694,4.815 11.228,4.815 C11.090,4.807 10.951,4.799 10.812,4.790 C10.251,4.895 9.795,6.224 9.220,6.365 C7.682,6.365 6.143,6.365 4.604,6.365 C4.094,6.361 3.583,6.357 3.073,6.352 C3.028,6.394 2.984,6.437 2.939,6.478 C2.934,6.663 2.915,6.873 3.037,6.957 C3.177,7.055 3.401,6.953 3.588,6.957 C4.061,6.962 4.535,6.966 5.008,6.970 C7.628,6.970 10.249,6.970 12.869,6.970 C17.493,6.966 22.118,6.962 26.743,6.957 C27.216,6.962 27.690,6.966 28.163,6.970 C29.049,6.966 29.934,6.962 30.820,6.957 C31.077,6.962 31.334,6.966 31.592,6.970 C32.260,6.970 32.857,6.966 33.392,6.831 C34.576,6.534 35.371,5.604 36.110,4.828 C36.384,4.540 36.822,3.911 37.224,3.807 C38.412,3.803 39.600,3.799 40.787,3.795 C41.162,3.795 41.638,3.869 41.914,3.770 C41.993,3.626 42.027,3.486 41.975,3.291 C41.743,3.116 41.162,3.202 40.738,3.203 C39.906,3.203 39.073,3.203 38.240,3.203 C37.876,3.203 37.395,3.283 37.114,3.165 C36.817,3.039 36.356,2.400 36.098,2.157 C35.220,1.333 34.544,0.434 33.171,0.103 C32.705,-0.009 32.112,0.027 31.555,0.027 C31.387,0.032 31.220,0.036 31.053,0.040 C29.596,0.040 28.138,0.040 26.681,0.040 C22.241,0.040 17.799,0.040 13.359,0.040 C10.894,0.040 8.495,0.040 6.012,0.040 C5.326,0.036 4.641,0.032 3.955,0.027 C3.806,0.066 3.612,0.209 3.551,0.343 C3.529,0.410 3.538,0.490 3.575,0.531 C3.670,0.708 4.134,0.620 4.384,0.620 C5.196,0.620 6.008,0.620 6.820,0.620 C7.388,0.620 7.955,0.620 8.522,0.620 C8.768,0.620 9.122,0.575 9.306,0.658 C9.781,0.870 10.170,1.781 10.604,2.106 C10.792,2.247 11.045,2.116 11.314,2.157 C11.975,2.161 12.637,2.165 13.298,2.169 C13.318,2.148 13.339,2.127 13.359,2.106 C13.323,1.583 12.339,1.351 12.490,0.695 C12.645,0.590 12.857,0.619 13.102,0.620 C13.310,0.620 13.572,0.592 13.726,0.658 C13.881,0.723 13.961,0.870 14.057,0.998 C14.375,1.371 14.694,1.745 15.012,2.119 C15.284,2.294 16.184,2.119 16.616,2.157 C16.770,2.170 17.690,2.209 17.743,2.169 C17.879,2.067 17.633,1.846 17.583,1.791 C17.449,1.643 16.692,1.018 16.922,0.708 C17.003,0.552 18.034,0.577 18.196,0.695 C18.394,0.840 18.510,1.079 18.673,1.262 C18.824,1.430 18.975,1.598 19.126,1.766 C19.225,1.894 19.315,2.077 19.469,2.144 C19.594,2.198 19.785,2.179 19.922,2.157 C20.326,2.157 20.730,2.157 21.134,2.157 C21.442,2.164 21.969,2.256 22.163,2.119 C22.144,1.621 21.152,1.360 21.294,0.695 C21.535,0.521 22.419,0.574 22.653,0.746 C22.777,0.837 22.852,0.988 22.947,1.111 C23.245,1.451 23.543,1.791 23.840,2.132 C23.945,2.196 25.037,2.192 25.261,2.157 C25.617,2.102 26.395,2.281 26.571,2.106 C26.533,1.673 25.504,1.233 25.689,0.733 C25.782,0.542 26.817,0.580 27.000,0.695 C27.069,0.775 27.138,0.855 27.208,0.935 C27.526,1.317 27.845,1.699 28.163,2.081 C28.348,2.238 28.677,2.154 28.971,2.157 C29.461,2.157 29.951,2.157 30.440,2.157 C30.610,2.158 30.748,2.213 30.918,2.182 C30.938,2.161 30.959,2.140 30.979,2.119 C30.954,1.645 29.773,1.207 30.159,0.645 C30.349,0.586 31.190,0.568 31.371,0.683 C31.618,0.840 32.085,1.451 32.277,1.703 C32.395,1.858 32.515,2.084 32.706,2.157 C32.844,2.210 33.028,2.163 33.171,2.157 C33.763,2.157 34.355,2.157 34.947,2.157 C35.200,2.203 35.300,2.330 35.461,2.459 C35.641,2.604 35.870,2.784 35.791,3.115 C35.538,3.300 34.140,3.203 33.612,3.203 C31.681,3.203 29.750,3.203 27.820,3.203 C21.760,3.203 15.697,3.203 9.637,3.203 C9.095,3.097 8.820,2.062 8.326,1.955 C7.620,1.960 6.914,1.964 6.208,1.968 C5.929,1.968 5.597,1.891 5.412,2.006 C4.999,2.262 4.828,2.850 4.433,3.127 C4.258,3.249 3.860,3.203 3.575,3.203 C3.020,3.203 2.465,3.203 1.910,3.203 C1.678,3.203 1.369,3.143 1.200,3.228 C1.070,3.293 1.024,3.412 0.955,3.543 ZM5.400,3.429 C5.522,3.186 5.663,2.953 5.914,2.850 C6.138,2.758 6.546,2.812 6.832,2.812 C7.174,2.812 7.673,2.730 7.959,2.850 C8.059,2.892 8.115,2.987 8.192,3.051 C8.334,3.170 8.457,3.281 8.473,3.530 C8.488,3.749 8.284,3.852 8.180,3.959 C7.856,4.290 7.597,4.078 7.077,4.160 C6.300,4.283 5.391,4.162 5.400,3.429 Z" class="cls-1"/> 
    </symbol>
    <symbol id="xqright" viewBox="0 0 41.969 7" preserveAspectRatio="xMidYMid" >
        <path d="M41.969,3.341 C41.965,3.371 41.961,3.400 41.957,3.429 C41.932,3.463 41.943,3.454 41.895,3.467 C41.883,3.450 41.871,3.434 41.859,3.417 C41.863,3.392 41.867,3.366 41.871,3.341 C41.879,3.337 41.887,3.333 41.895,3.329 C41.920,3.333 41.945,3.337 41.969,3.341 ZM41.014,3.543 C41.017,3.660 40.995,3.695 40.953,3.757 C40.771,3.819 40.539,3.766 40.328,3.782 C39.471,3.786 38.614,3.790 37.757,3.795 C37.082,3.934 37.048,4.932 36.349,5.030 C36.181,5.021 36.014,5.013 35.847,5.004 C35.320,5.004 34.793,5.004 34.267,5.004 C33.985,5.004 33.629,5.068 33.447,4.941 C32.985,4.622 32.909,3.900 32.198,3.782 C26.729,3.790 21.258,3.799 15.790,3.807 C13.480,3.803 11.169,3.799 8.859,3.795 C8.239,3.799 7.618,3.803 6.998,3.807 C6.781,3.807 6.438,3.693 6.263,3.807 C5.953,4.010 6.351,4.404 6.484,4.500 C6.647,4.619 6.715,4.765 6.961,4.815 C7.577,4.815 8.194,4.815 8.810,4.815 C8.962,4.814 9.114,4.760 9.251,4.815 C9.417,4.882 9.516,5.057 9.618,5.193 C9.788,5.421 10.435,6.248 10.659,6.340 C10.812,6.402 11.089,6.363 11.284,6.365 C11.505,6.367 11.712,6.392 11.859,6.302 C12.036,5.689 11.034,5.333 10.965,4.866 C10.977,4.849 10.990,4.832 11.002,4.815 C11.169,4.765 11.313,4.815 11.516,4.815 C12.014,4.815 12.512,4.815 13.010,4.815 C13.239,4.815 13.569,4.752 13.732,4.853 C14.132,5.328 14.533,5.802 14.932,6.277 C15.096,6.394 16.178,6.457 16.279,6.252 C16.497,5.823 15.294,5.162 15.385,4.853 C15.403,4.829 15.387,4.845 15.410,4.828 C15.530,4.746 16.205,4.815 16.438,4.815 C16.764,4.815 17.985,4.755 18.116,4.840 C18.418,5.189 18.720,5.538 19.022,5.886 C19.135,6.033 19.221,6.214 19.390,6.302 C19.592,6.408 20.645,6.449 20.700,6.227 C20.779,5.903 19.952,5.150 19.781,4.954 C19.781,4.874 19.792,4.858 19.818,4.815 C19.997,4.771 20.174,4.831 20.357,4.828 C20.839,4.824 21.320,4.820 21.802,4.815 C22.086,4.815 22.381,4.743 22.561,4.878 C22.667,5.008 22.773,5.139 22.879,5.269 C23.030,5.437 23.181,5.605 23.332,5.773 C23.473,5.959 23.629,6.255 23.859,6.340 C24.104,6.430 24.908,6.392 25.059,6.290 C25.241,5.658 24.240,5.361 24.165,4.866 C24.177,4.849 24.189,4.832 24.202,4.815 C24.368,4.768 24.518,4.815 24.728,4.815 C25.230,4.815 25.732,4.815 26.234,4.815 C26.466,4.815 26.803,4.751 26.957,4.866 C27.279,5.244 27.602,5.622 27.924,6.000 C28.017,6.122 28.080,6.265 28.230,6.327 C28.387,6.392 28.645,6.363 28.855,6.365 C29.110,6.368 29.321,6.388 29.479,6.277 C29.623,5.668 28.650,5.359 28.573,4.866 C28.577,4.857 28.581,4.849 28.585,4.840 C28.783,4.746 29.081,4.815 29.345,4.815 C29.810,4.815 30.275,4.815 30.740,4.815 C30.879,4.807 31.018,4.799 31.157,4.790 C31.718,4.895 32.174,6.224 32.749,6.365 C34.287,6.365 35.826,6.365 37.365,6.365 C37.875,6.361 38.385,6.357 38.895,6.352 C38.940,6.394 38.985,6.437 39.030,6.478 C39.035,6.663 39.054,6.873 38.932,6.957 C38.791,7.055 38.567,6.953 38.381,6.957 C37.908,6.962 37.434,6.966 36.961,6.970 C34.341,6.970 31.720,6.970 29.100,6.970 C24.476,6.966 19.850,6.962 15.226,6.957 C14.753,6.962 14.279,6.966 13.806,6.970 C12.920,6.966 12.034,6.962 11.149,6.957 C10.892,6.962 10.635,6.966 10.377,6.970 C9.709,6.970 9.112,6.966 8.577,6.831 C7.393,6.534 6.598,5.604 5.859,4.828 C5.585,4.540 5.146,3.911 4.745,3.807 C3.557,3.803 2.369,3.799 1.182,3.795 C0.807,3.795 0.331,3.869 0.055,3.770 C-0.024,3.626 -0.058,3.486 -0.006,3.291 C0.225,3.116 0.807,3.202 1.230,3.203 C2.063,3.203 2.896,3.203 3.728,3.203 C4.092,3.203 4.574,3.283 4.855,3.165 C5.152,3.039 5.613,2.400 5.871,2.157 C6.749,1.333 7.425,0.434 8.798,0.103 C9.264,-0.009 9.857,0.027 10.414,0.027 C10.581,0.032 10.749,0.036 10.916,0.040 C12.373,0.040 13.831,0.040 15.288,0.040 C19.728,0.040 24.170,0.040 28.610,0.040 C31.075,0.040 33.474,0.040 35.957,0.040 C36.642,0.036 37.328,0.032 38.014,0.027 C38.163,0.066 38.357,0.209 38.418,0.343 C38.440,0.410 38.431,0.490 38.393,0.531 C38.298,0.708 37.834,0.620 37.585,0.620 C36.773,0.620 35.961,0.620 35.149,0.620 C34.581,0.620 34.014,0.620 33.447,0.620 C33.201,0.620 32.847,0.575 32.663,0.658 C32.187,0.870 31.798,1.781 31.365,2.106 C31.177,2.247 30.924,2.116 30.655,2.157 C29.994,2.161 29.332,2.165 28.671,2.169 C28.651,2.148 28.630,2.127 28.610,2.106 C28.646,1.583 29.630,1.351 29.479,0.695 C29.324,0.590 29.112,0.619 28.867,0.620 C28.659,0.620 28.397,0.592 28.242,0.658 C28.088,0.723 28.008,0.870 27.912,0.998 C27.594,1.371 27.275,1.745 26.957,2.119 C26.685,2.294 25.785,2.119 25.353,2.157 C25.199,2.170 24.279,2.209 24.226,2.169 C24.090,2.067 24.336,1.846 24.385,1.791 C24.520,1.643 25.277,1.018 25.047,0.708 C24.966,0.552 23.935,0.577 23.773,0.695 C23.575,0.840 23.458,1.079 23.296,1.262 C23.145,1.430 22.994,1.598 22.843,1.766 C22.744,1.894 22.654,2.077 22.500,2.144 C22.375,2.198 22.184,2.179 22.047,2.157 C21.643,2.157 21.238,2.157 20.834,2.157 C20.527,2.164 20.000,2.256 19.806,2.119 C19.825,1.621 20.817,1.360 20.675,0.695 C20.434,0.521 19.550,0.574 19.316,0.746 C19.192,0.837 19.117,0.988 19.022,1.111 C18.724,1.451 18.426,1.791 18.128,2.132 C18.024,2.196 16.932,2.192 16.708,2.157 C16.352,2.102 15.573,2.281 15.398,2.106 C15.435,1.673 16.464,1.233 16.279,0.733 C16.187,0.542 15.152,0.580 14.969,0.695 C14.900,0.775 14.830,0.855 14.761,0.935 C14.443,1.317 14.124,1.699 13.806,2.081 C13.621,2.238 13.291,2.154 12.998,2.157 C12.508,2.157 12.018,2.157 11.528,2.157 C11.359,2.158 11.221,2.213 11.051,2.182 C11.030,2.161 11.010,2.140 10.990,2.119 C11.015,1.645 12.196,1.207 11.810,0.645 C11.620,0.586 10.778,0.568 10.598,0.683 C10.351,0.840 9.884,1.451 9.692,1.703 C9.574,1.858 9.454,2.084 9.263,2.157 C9.124,2.210 8.941,2.163 8.798,2.157 C8.206,2.157 7.614,2.157 7.022,2.157 C6.768,2.203 6.669,2.330 6.508,2.459 C6.328,2.604 6.099,2.784 6.177,3.115 C6.431,3.300 7.829,3.203 8.357,3.203 C10.287,3.203 12.218,3.203 14.149,3.203 C20.209,3.203 26.272,3.203 32.332,3.203 C32.874,3.097 33.148,2.062 33.643,1.955 C34.348,1.960 35.055,1.964 35.761,1.968 C36.040,1.968 36.372,1.891 36.557,2.006 C36.970,2.262 37.141,2.850 37.536,3.127 C37.711,3.249 38.109,3.203 38.393,3.203 C38.948,3.203 39.504,3.203 40.059,3.203 C40.291,3.203 40.600,3.143 40.769,3.228 C40.898,3.293 40.945,3.412 41.014,3.543 ZM36.569,3.429 C36.447,3.186 36.306,2.953 36.055,2.850 C35.831,2.758 35.422,2.812 35.136,2.812 C34.795,2.812 34.295,2.730 34.010,2.850 C33.910,2.892 33.854,2.987 33.777,3.051 C33.634,3.170 33.512,3.281 33.496,3.530 C33.481,3.749 33.685,3.852 33.789,3.959 C34.113,4.290 34.372,4.078 34.891,4.160 C35.669,4.283 36.578,4.162 36.569,3.429 Z" class="cls-1"/> 
    </symbol></svg>